<?xml version="1.0" standalone="no"?>
<!DOCTYPE svg PUBLIC "-//W3C//DTD SVG 20010904//EN"
 "http://www.w3.org/TR/2001/REC-SVG-20010904/DTD/svg10.dtd">
<svg version="1.0" xmlns="http://www.w3.org/2000/svg"
 width="419.000000pt" height="281.000000pt" viewBox="0 0 419.000000 281.000000"
 preserveAspectRatio="xMidYMid meet">

<g transform="translate(0.000000,281.000000) scale(0.100000,-0.100000)"
fill="#000000" stroke="none">
<path d="M430 1975 l0 -55 95 0 95 0 0 -190 0 -190 130 0 130 0 0 190 0 190
90 0 90 0 0 55 0 55 -315 0 -315 0 0 -55z"/>
<path d="M1442 2020 c-176 -24 -303 -105 -318 -202 -21 -127 84 -226 282 -263
181 -35 394 1 502 85 66 52 92 152 58 219 -20 38 -81 90 -131 112 -102 45
-270 66 -393 49z m203 -120 c63 -60 53 -210 -16 -246 -36 -18 -122 -18 -158 1
-37 19 -56 66 -56 137 1 97 49 141 147 135 44 -2 64 -9 83 -27z"/>
<path d="M2040 1786 l0 -246 213 0 c116 0 241 5 276 11 194 31 306 117 305
234 -2 82 -40 132 -140 183 -89 45 -147 54 -406 59 l-248 5 0 -246z m436 128
c101 -48 110 -188 15 -251 -27 -18 -48 -23 -102 -23 l-69 0 0 145 0 145 61 0
c36 0 75 -7 95 -16z"/>
<path d="M3220 2021 c-230 -34 -357 -145 -320 -281 29 -109 169 -182 375 -196
195 -14 386 48 451 143 85 126 -7 264 -212 317 -73 19 -221 27 -294 17z m181
-107 c83 -42 78 -232 -7 -264 -14 -6 -45 -10 -69 -10 -94 0 -135 44 -135 143
0 67 19 110 58 131 36 20 115 20 153 0z"/>
</g>
</svg>
